<svg id="visual" viewBox="0 0 900 250" width="900" height="250" xmlns="http://www.w3.org/2000/svg" xmlns:xlink="http://www.w3.org/1999/xlink" version="1.1"><path d="M0 126L18.8 127.3C37.7 128.7 75.3 131.3 112.8 128.2C150.3 125 187.7 116 225.2 114.7C262.7 113.3 300.3 119.7 337.8 125.5C375.3 131.3 412.7 136.7 450.2 133.2C487.7 129.7 525.3 117.3 562.8 115.8C600.3 114.3 637.7 123.7 675.2 130.2C712.7 136.7 750.3 140.3 787.8 138.8C825.3 137.3 862.7 130.7 881.3 127.3L900 124L900 251L881.3 251C862.7 251 825.3 251 787.8 251C750.3 251 712.7 251 675.2 251C637.7 251 600.3 251 562.8 251C525.3 251 487.7 251 450.2 251C412.7 251 375.3 251 337.8 251C300.3 251 262.7 251 225.2 251C187.7 251 150.3 251 112.8 251C75.3 251 37.7 251 18.8 251L0 251Z" fill="#67d0d4"></path><path d="M0 144L18.8 142.7C37.7 141.3 75.3 138.7 112.8 142.8C150.3 147 187.7 158 225.2 163.8C262.7 169.7 300.3 170.3 337.8 168.8C375.3 167.3 412.7 163.7 450.2 159.2C487.7 154.7 525.3 149.3 562.8 147C600.3 144.7 637.7 145.3 675.2 147.7C712.7 150 750.3 154 787.8 157.8C825.3 161.7 862.7 165.3 881.3 167.2L900 169L900 251L881.3 251C862.7 251 825.3 251 787.8 251C750.3 251 712.7 251 675.2 251C637.7 251 600.3 251 562.8 251C525.3 251 487.7 251 450.2 251C412.7 251 375.3 251 337.8 251C300.3 251 262.7 251 225.2 251C187.7 251 150.3 251 112.8 251C75.3 251 37.7 251 18.8 251L0 251Z" fill="#5ac3c7"></path><path d="M0 167L18.8 170.3C37.7 173.7 75.3 180.3 112.8 182.5C150.3 184.7 187.7 182.3 225.2 178.3C262.7 174.3 300.3 168.7 337.8 168.8C375.3 169 412.7 175 450.2 178C487.7 181 525.3 181 562.8 177.5C600.3 174 637.7 167 675.2 163C712.7 159 750.3 158 787.8 159.2C825.3 160.3 862.7 163.7 881.3 165.3L900 167L900 251L881.3 251C862.7 251 825.3 251 787.8 251C750.3 251 712.7 251 675.2 251C637.7 251 600.3 251 562.8 251C525.3 251 487.7 251 450.2 251C412.7 251 375.3 251 337.8 251C300.3 251 262.7 251 225.2 251C187.7 251 150.3 251 112.8 251C75.3 251 37.7 251 18.8 251L0 251Z" fill="#4db6ba"></path><path d="M0 188L18.8 191.8C37.7 195.7 75.3 203.3 112.8 205.5C150.3 207.7 187.7 204.3 225.2 203C262.7 201.7 300.3 202.3 337.8 201.7C375.3 201 412.7 199 450.2 197.3C487.7 195.7 525.3 194.3 562.8 196.2C600.3 198 637.7 203 675.2 205.5C712.7 208 750.3 208 787.8 208.7C825.3 209.3 862.7 210.7 881.3 211.3L900 212L900 251L881.3 251C862.7 251 825.3 251 787.8 251C750.3 251 712.7 251 675.2 251C637.7 251 600.3 251 562.8 251C525.3 251 487.7 251 450.2 251C412.7 251 375.3 251 337.8 251C300.3 251 262.7 251 225.2 251C187.7 251 150.3 251 112.8 251C75.3 251 37.7 251 18.8 251L0 251Z" fill="#3fa9ad"></path><path d="M0 232L18.8 232C37.7 232 75.3 232 112.8 229.5C150.3 227 187.7 222 225.2 218.2C262.7 214.3 300.3 211.7 337.8 212.7C375.3 213.7 412.7 218.3 450.2 220.5C487.7 222.7 525.3 222.3 562.8 221C600.3 219.7 637.7 217.3 675.2 217.5C712.7 217.7 750.3 220.3 787.8 222.2C825.3 224 862.7 225 881.3 225.5L900 226L900 251L881.3 251C862.7 251 825.3 251 787.8 251C750.3 251 712.7 251 675.2 251C637.7 251 600.3 251 562.8 251C525.3 251 487.7 251 450.2 251C412.7 251 375.3 251 337.8 251C300.3 251 262.7 251 225.2 251C187.7 251 150.3 251 112.8 251C75.3 251 37.7 251 18.8 251L0 251Z" fill="#319da0"></path></svg>