<svg id="visual" viewBox="0 0 900 250" width="900" height="250" xmlns="http://www.w3.org/2000/svg" xmlns:xlink="http://www.w3.org/1999/xlink" version="1.1"><path d="M0 116L18.8 117.8C37.7 119.7 75.3 123.3 112.8 129.3C150.3 135.3 187.7 143.7 225.2 142.3C262.7 141 300.3 130 337.8 127.8C375.3 125.7 412.7 132.3 450.2 131.2C487.7 130 525.3 121 562.8 115.8C600.3 110.7 637.7 109.3 675.2 115.8C712.7 122.3 750.3 136.7 787.8 139.3C825.3 142 862.7 133 881.3 128.5L900 124L900 251L881.3 251C862.7 251 825.3 251 787.8 251C750.3 251 712.7 251 675.2 251C637.7 251 600.3 251 562.8 251C525.3 251 487.7 251 450.2 251C412.7 251 375.3 251 337.8 251C300.3 251 262.7 251 225.2 251C187.7 251 150.3 251 112.8 251C75.3 251 37.7 251 18.8 251L0 251Z" fill="#f04994"></path><path d="M0 148L18.8 147.5C37.7 147 75.3 146 112.8 148.5C150.3 151 187.7 157 225.2 156.7C262.7 156.3 300.3 149.7 337.8 146.8C375.3 144 412.7 145 450.2 142.7C487.7 140.3 525.3 134.7 562.8 135.7C600.3 136.7 637.7 144.3 675.2 145.8C712.7 147.3 750.3 142.7 787.8 140.2C825.3 137.7 862.7 137.3 881.3 137.2L900 137L900 251L881.3 251C862.7 251 825.3 251 787.8 251C750.3 251 712.7 251 675.2 251C637.7 251 600.3 251 562.8 251C525.3 251 487.7 251 450.2 251C412.7 251 375.3 251 337.8 251C300.3 251 262.7 251 225.2 251C187.7 251 150.3 251 112.8 251C75.3 251 37.7 251 18.8 251L0 251Z" fill="#e43f88"></path><path d="M0 182L18.8 183.7C37.7 185.3 75.3 188.7 112.8 188.5C150.3 188.3 187.7 184.7 225.2 182.5C262.7 180.3 300.3 179.7 337.8 177C375.3 174.3 412.7 169.7 450.2 168C487.7 166.3 525.3 167.7 562.8 166.2C600.3 164.7 637.7 160.3 675.2 158.3C712.7 156.3 750.3 156.7 787.8 162.5C825.3 168.3 862.7 179.7 881.3 185.3L900 191L900 251L881.3 251C862.7 251 825.3 251 787.8 251C750.3 251 712.7 251 675.2 251C637.7 251 600.3 251 562.8 251C525.3 251 487.7 251 450.2 251C412.7 251 375.3 251 337.8 251C300.3 251 262.7 251 225.2 251C187.7 251 150.3 251 112.8 251C75.3 251 37.7 251 18.8 251L0 251Z" fill="#d8357d"></path><path d="M0 191L18.8 191.2C37.7 191.3 75.3 191.7 112.8 191.2C150.3 190.7 187.7 189.3 225.2 192C262.7 194.7 300.3 201.3 337.8 201.2C375.3 201 412.7 194 450.2 192.8C487.7 191.7 525.3 196.3 562.8 195.3C600.3 194.3 637.7 187.7 675.2 186.5C712.7 185.3 750.3 189.7 787.8 190.2C825.3 190.7 862.7 187.3 881.3 185.7L900 184L900 251L881.3 251C862.7 251 825.3 251 787.8 251C750.3 251 712.7 251 675.2 251C637.7 251 600.3 251 562.8 251C525.3 251 487.7 251 450.2 251C412.7 251 375.3 251 337.8 251C300.3 251 262.7 251 225.2 251C187.7 251 150.3 251 112.8 251C75.3 251 37.7 251 18.8 251L0 251Z" fill="#cc2a72"></path><path d="M0 229L18.8 228C37.7 227 75.3 225 112.8 224.2C150.3 223.3 187.7 223.7 225.2 221.8C262.7 220 300.3 216 337.8 215.3C375.3 214.7 412.7 217.3 450.2 218.3C487.7 219.3 525.3 218.7 562.8 218.8C600.3 219 637.7 220 675.2 220C712.7 220 750.3 219 787.8 216.3C825.3 213.7 862.7 209.3 881.3 207.2L900 205L900 251L881.3 251C862.7 251 825.3 251 787.8 251C750.3 251 712.7 251 675.2 251C637.7 251 600.3 251 562.8 251C525.3 251 487.7 251 450.2 251C412.7 251 375.3 251 337.8 251C300.3 251 262.7 251 225.2 251C187.7 251 150.3 251 112.8 251C75.3 251 37.7 251 18.8 251L0 251Z" fill="#c11e67"></path></svg>