<svg version="1.1" id="Layer_1" xmlns="http://www.w3.org/2000/svg" xmlns:xlink="http://www.w3.org/1999/xlink" x="0px" y="0px"
	 width="100%" viewBox="0 0 368 368" xml:space="preserve">
<path fill="#ffffff" opacity="1.000000" stroke="none" 
	d="
M173.493744,248.616150 
	C196.886887,199.390366 220.160477,150.541336 243.366043,101.659996 
	C246.788025,94.451752 251.892456,89.737617 260.181641,89.635063 
	C268.300537,89.534607 273.582855,94.044273 276.899628,101.030754 
	C292.966003,134.872849 309.120087,168.674896 324.907288,202.647171 
	C331.108856,215.992310 322.768677,228.073608 307.858246,228.102997 
	C280.869049,228.156204 253.879166,228.198975 226.890991,228.025879 
	C223.146423,228.001862 221.359344,229.167068 219.844162,232.577744 
	C215.586731,242.161209 210.903152,251.556992 206.314484,260.991211 
	C201.664490,270.551544 192.698669,274.684418 183.774857,271.482971 
	C174.883331,268.293060 170.780701,259.436310 173.493744,248.616150 
M269.845703,167.502686 
	C266.836975,161.195236 263.828217,154.887787 260.278229,147.445648 
	C251.994415,164.924149 244.348953,181.055756 236.429886,197.764679 
	C252.749527,197.764679 268.125519,197.764679 284.369812,197.764679 
	C279.476624,187.557083 274.830231,177.864288 269.845703,167.502686 
z"/>
<path fill="#ffffff" opacity="1.000000" stroke="none" 
	d="
M177.484985,157.494324 
	C176.475327,168.051712 173.346939,177.453171 168.273148,186.236465 
	C163.135941,195.129562 153.165451,198.360306 144.788696,193.791611 
	C135.740585,188.856781 132.446625,179.131073 137.482834,169.925293 
	C143.593277,158.755920 144.697662,147.552246 139.427872,135.937973 
	C136.637039,129.787125 131.890472,125.295219 124.994019,125.059708 
	C108.352150,124.491379 91.689156,124.501671 75.034248,124.463661 
	C74.118240,124.461563 72.769554,125.992310 72.389488,127.078110 
	C71.920441,128.418121 72.244781,130.039597 72.244675,131.539459 
	C72.241814,172.039322 72.268333,212.539230 72.222397,253.039047 
	C72.210121,263.856506 66.124062,271.239166 56.596565,272.336823 
	C47.112297,273.429474 38.656395,266.898560 37.416615,257.437592 
	C37.136192,255.297653 37.052361,253.118500 37.051441,250.957336 
	C37.031494,204.124161 37.051701,157.290970 37.019604,110.457817 
	C37.014706,103.313858 38.156765,96.543915 44.888775,92.698524 
	C48.078136,90.876740 52.038403,89.537201 55.667263,89.494438 
	C77.495926,89.237198 99.330742,89.302727 121.161652,89.483009 
	C151.994965,89.737633 171.282349,110.172569 176.428040,138.644577 
	C177.512894,144.647217 177.192520,150.903809 177.484985,157.494324 
z"/>
<path fill="#ffffff" opacity="1.000000" stroke="none" 
	d="
M326.262939,238.149078 
	C338.901672,235.657913 347.482300,244.771362 348.153229,253.466599 
	C348.821472,262.126953 343.134399,270.194305 334.837677,272.074707 
	C326.118164,274.050934 317.233154,269.384277 314.212128,261.241638 
	C311.229828,253.203323 314.638184,244.020203 322.225891,239.796799 
	C323.377228,239.155960 324.664978,238.760284 326.262939,238.149078 
z"/>
<path fill="#ffffff" opacity="1.000000" stroke="none" 
	d="
M104.412857,180.183655 
	C116.412292,180.094208 124.429169,187.771042 123.902596,198.383530 
	C123.408913,208.333176 114.993225,215.829727 105.211052,215.033661 
	C96.813522,214.350266 89.973267,207.589401 89.178299,199.187027 
	C88.315750,190.070358 94.008980,182.794220 104.412857,180.183655 
z"/>
</svg>