<svg id="visual" viewBox="0 0 960 200" width="960" height="200" xmlns="http://www.w3.org/2000/svg" xmlns:xlink="http://www.w3.org/1999/xlink" version="1.1"><path d="M0 44L14.5 44.7C29 45.3 58 46.7 87.2 52.7C116.3 58.7 145.7 69.3 174.8 64.2C204 59 233 38 262 29.3C291 20.7 320 24.3 349 34.7C378 45 407 62 436.2 60.7C465.3 59.3 494.7 39.7 523.8 40.8C553 42 582 64 611 66.7C640 69.3 669 52.7 698 41C727 29.3 756 22.7 785.2 24.8C814.3 27 843.7 38 872.8 40.7C902 43.3 931 37.7 945.5 34.8L960 32L960 0L945.5 0C931 0 902 0 872.8 0C843.7 0 814.3 0 785.2 0C756 0 727 0 698 0C669 0 640 0 611 0C582 0 553 0 523.8 0C494.7 0 465.3 0 436.2 0C407 0 378 0 349 0C320 0 291 0 262 0C233 0 204 0 174.8 0C145.7 0 116.3 0 87.2 0C58 0 29 0 14.5 0L0 0Z" fill="#c11e67" stroke-linecap="round" stroke-linejoin="miter"></path></svg>