<svg id="visual" viewBox="0 0 960 540" width="960" height="540" xmlns="http://www.w3.org/2000/svg" xmlns:xlink="http://www.w3.org/1999/xlink" version="1.1"><rect x="0" y="0" width="960" height="540" fill="#071824"></rect><defs><linearGradient id="grad1_0" x1="43.8%" y1="100%" x2="100%" y2="0%"><stop offset="14.444444444444446%" stop-color="#071824" stop-opacity="1"></stop><stop offset="85.55555555555554%" stop-color="#071824" stop-opacity="1"></stop></linearGradient></defs><defs><linearGradient id="grad2_0" x1="0%" y1="100%" x2="56.3%" y2="0%"><stop offset="14.444444444444446%" stop-color="#071824" stop-opacity="1"></stop><stop offset="85.55555555555554%" stop-color="#071824" stop-opacity="1"></stop></linearGradient></defs><g transform="translate(960, 540)"><path d="M-270 0C-247.3 -23.1 -224.7 -46.1 -214 -69.5C-203.3 -92.9 -204.6 -116.7 -199 -144.6C-193.5 -172.5 -181.1 -204.7 -158.7 -218.4C-136.3 -232.2 -103.8 -227.5 -75.7 -233C-47.6 -238.5 -23.8 -254.3 0 -270L0 0Z" fill="#c11e67"></path></g><g transform="translate(0, 0)"><path d="M270 0C272.2 31.3 274.4 62.7 256.8 83.4C239.2 104.2 201.7 114.4 178.8 129.9C155.9 145.4 147.6 166.1 132.8 182.8C118.1 199.6 96.8 212.5 73.5 226.4C50.3 240.2 25.2 255.1 0 270L0 0Z" fill="#c11e67"></path></g></svg>