<svg id="visual" viewBox="0 0 960 540" width="960" height="540" xmlns="http://www.w3.org/2000/svg" xmlns:xlink="http://www.w3.org/1999/xlink" version="1.1"><path d="M0 327L22.8 334C45.7 341 91.3 355 137 354.8C182.7 354.7 228.3 340.3 274 339.8C319.7 339.3 365.3 352.7 411.2 355.5C457 358.3 503 350.7 548.8 349C594.7 347.3 640.3 351.7 686 347C731.7 342.3 777.3 328.7 823 324C868.7 319.3 914.3 323.7 937.2 325.8L960 328L960 541L937.2 541C914.3 541 868.7 541 823 541C777.3 541 731.7 541 686 541C640.3 541 594.7 541 548.8 541C503 541 457 541 411.2 541C365.3 541 319.7 541 274 541C228.3 541 182.7 541 137 541C91.3 541 45.7 541 22.8 541L0 541Z" fill="#44d2d7"></path><path d="M0 372L22.8 378.7C45.7 385.3 91.3 398.7 137 402.2C182.7 405.7 228.3 399.3 274 393C319.7 386.7 365.3 380.3 411.2 377C457 373.7 503 373.3 548.8 371C594.7 368.7 640.3 364.3 686 369C731.7 373.7 777.3 387.3 823 392.5C868.7 397.7 914.3 394.3 937.2 392.7L960 391L960 541L937.2 541C914.3 541 868.7 541 823 541C777.3 541 731.7 541 686 541C640.3 541 594.7 541 548.8 541C503 541 457 541 411.2 541C365.3 541 319.7 541 274 541C228.3 541 182.7 541 137 541C91.3 541 45.7 541 22.8 541L0 541Z" fill="#3fc4c9"></path><path d="M0 413L22.8 410.5C45.7 408 91.3 403 137 402.7C182.7 402.3 228.3 406.7 274 411.2C319.7 415.7 365.3 420.3 411.2 417.3C457 414.3 503 403.7 548.8 408.2C594.7 412.7 640.3 432.3 686 438.8C731.7 445.3 777.3 438.7 823 430C868.7 421.3 914.3 410.7 937.2 405.3L960 400L960 541L937.2 541C914.3 541 868.7 541 823 541C777.3 541 731.7 541 686 541C640.3 541 594.7 541 548.8 541C503 541 457 541 411.2 541C365.3 541 319.7 541 274 541C228.3 541 182.7 541 137 541C91.3 541 45.7 541 22.8 541L0 541Z" fill="#3ab7bb"></path><path d="M0 443L22.8 449.7C45.7 456.3 91.3 469.7 137 468.8C182.7 468 228.3 453 274 449.7C319.7 446.3 365.3 454.7 411.2 462C457 469.3 503 475.7 548.8 470.7C594.7 465.7 640.3 449.3 686 447C731.7 444.7 777.3 456.3 823 456.2C868.7 456 914.3 444 937.2 438L960 432L960 541L937.2 541C914.3 541 868.7 541 823 541C777.3 541 731.7 541 686 541C640.3 541 594.7 541 548.8 541C503 541 457 541 411.2 541C365.3 541 319.7 541 274 541C228.3 541 182.7 541 137 541C91.3 541 45.7 541 22.8 541L0 541Z" fill="#35aaad"></path><path d="M0 494L22.8 494.2C45.7 494.3 91.3 494.7 137 497.7C182.7 500.7 228.3 506.3 274 504.8C319.7 503.3 365.3 494.7 411.2 492.5C457 490.3 503 494.7 548.8 499.7C594.7 504.7 640.3 510.3 686 507.7C731.7 505 777.3 494 823 489.7C868.7 485.3 914.3 487.7 937.2 488.8L960 490L960 541L937.2 541C914.3 541 868.7 541 823 541C777.3 541 731.7 541 686 541C640.3 541 594.7 541 548.8 541C503 541 457 541 411.2 541C365.3 541 319.7 541 274 541C228.3 541 182.7 541 137 541C91.3 541 45.7 541 22.8 541L0 541Z" fill="#319da0"></path></svg>