<svg id="visual" viewBox="0 0 960 540" width="960" height="540" xmlns="http://www.w3.org/2000/svg" xmlns:xlink="http://www.w3.org/1999/xlink" version="1.1"><path d="M0 228L22.8 242.8C45.7 257.7 91.3 287.3 137 297.5C182.7 307.7 228.3 298.3 274 284.7C319.7 271 365.3 253 411.2 242.5C457 232 503 229 548.8 240.2C594.7 251.3 640.3 276.7 686 272C731.7 267.3 777.3 232.7 823 222.7C868.7 212.7 914.3 227.3 937.2 234.7L960 242L960 541L937.2 541C914.3 541 868.7 541 823 541C777.3 541 731.7 541 686 541C640.3 541 594.7 541 548.8 541C503 541 457 541 411.2 541C365.3 541 319.7 541 274 541C228.3 541 182.7 541 137 541C91.3 541 45.7 541 22.8 541L0 541Z" fill="#319da0"></path><path d="M0 319L22.8 315.8C45.7 312.7 91.3 306.3 137 315.8C182.7 325.3 228.3 350.7 274 345C319.7 339.3 365.3 302.7 411.2 296C457 289.3 503 312.7 548.8 329.5C594.7 346.3 640.3 356.7 686 348C731.7 339.3 777.3 311.7 823 298.8C868.7 286 914.3 288 937.2 289L960 290L960 541L937.2 541C914.3 541 868.7 541 823 541C777.3 541 731.7 541 686 541C640.3 541 594.7 541 548.8 541C503 541 457 541 411.2 541C365.3 541 319.7 541 274 541C228.3 541 182.7 541 137 541C91.3 541 45.7 541 22.8 541L0 541Z" fill="#2d878a"></path><path d="M0 347L22.8 349C45.7 351 91.3 355 137 364.5C182.7 374 228.3 389 274 391.5C319.7 394 365.3 384 411.2 382.2C457 380.3 503 386.7 548.8 387.7C594.7 388.7 640.3 384.3 686 384.3C731.7 384.3 777.3 388.7 823 394.5C868.7 400.3 914.3 407.7 937.2 411.3L960 415L960 541L937.2 541C914.3 541 868.7 541 823 541C777.3 541 731.7 541 686 541C640.3 541 594.7 541 548.8 541C503 541 457 541 411.2 541C365.3 541 319.7 541 274 541C228.3 541 182.7 541 137 541C91.3 541 45.7 541 22.8 541L0 541Z" fill="#297174"></path><path d="M0 436L22.8 435C45.7 434 91.3 432 137 437.5C182.7 443 228.3 456 274 454.3C319.7 452.7 365.3 436.3 411.2 438.2C457 440 503 460 548.8 470.5C594.7 481 640.3 482 686 478.2C731.7 474.3 777.3 465.7 823 453.8C868.7 442 914.3 427 937.2 419.5L960 412L960 541L937.2 541C914.3 541 868.7 541 823 541C777.3 541 731.7 541 686 541C640.3 541 594.7 541 548.8 541C503 541 457 541 411.2 541C365.3 541 319.7 541 274 541C228.3 541 182.7 541 137 541C91.3 541 45.7 541 22.8 541L0 541Z" fill="#245d5f"></path></svg>