<svg id="visual" viewBox="0 0 960 540" width="960" height="540" xmlns="http://www.w3.org/2000/svg" xmlns:xlink="http://www.w3.org/1999/xlink" version="1.1"><rect x="0" y="0" width="960" height="540" fill="#071824"></rect><path d="M0 289L137 289L274 322L411 311L549 291L686 316L823 348L960 285L960 541L823 541L686 541L549 541L411 541L274 541L137 541L0 541Z" fill="#d66598"></path><path d="M0 325L137 364L274 357L411 346L549 351L686 333L823 374L960 326L960 541L823 541L686 541L549 541L411 541L274 541L137 541L0 541Z" fill="#d1568c"></path><path d="M0 409L137 407L274 400L411 383L549 419L686 384L823 403L960 396L960 541L823 541L686 541L549 541L411 541L274 541L137 541L0 541Z" fill="#cc4780"></path><path d="M0 444L137 425L274 461L411 440L549 438L686 446L823 425L960 454L960 541L823 541L686 541L549 541L411 541L274 541L137 541L0 541Z" fill="#c73574"></path><path d="M0 475L137 487L274 498L411 501L549 492L686 479L823 477L960 483L960 541L823 541L686 541L549 541L411 541L274 541L137 541L0 541Z" fill="#c11e67"></path></svg>