<svg id="visual" viewBox="0 0 960 540" width="960" height="540" xmlns="http://www.w3.org/2000/svg" xmlns:xlink="http://www.w3.org/1999/xlink" version="1.1"><path d="M0 203L22.8 198.2C45.7 193.3 91.3 183.7 137 179.3C182.7 175 228.3 176 274 177.2C319.7 178.3 365.3 179.7 411.2 168.8C457 158 503 135 548.8 140.3C594.7 145.7 640.3 179.3 686 201.3C731.7 223.3 777.3 233.7 823 241.2C868.7 248.7 914.3 253.3 937.2 255.7L960 258L960 0L937.2 0C914.3 0 868.7 0 823 0C777.3 0 731.7 0 686 0C640.3 0 594.7 0 548.8 0C503 0 457 0 411.2 0C365.3 0 319.7 0 274 0C228.3 0 182.7 0 137 0C91.3 0 45.7 0 22.8 0L0 0Z" fill="#245d5f" stroke-linecap="round" stroke-linejoin="miter"></path></svg>