<svg id="visual" viewBox="0 0 960 540" width="960" height="540" xmlns="http://www.w3.org/2000/svg" xmlns:xlink="http://www.w3.org/1999/xlink" version="1.1"><path d="M0 111L13.3 108C26.7 105 53.3 99 80 96.8C106.7 94.7 133.3 96.3 160 102.2C186.7 108 213.3 118 240 114.8C266.7 111.7 293.3 95.3 320 84.8C346.7 74.3 373.3 69.7 400 76.5C426.7 83.3 453.3 101.7 480 103.3C506.7 105 533.3 90 560 83.8C586.7 77.7 613.3 80.3 640 87.7C666.7 95 693.3 107 720 118.3C746.7 129.7 773.3 140.3 800 141.2C826.7 142 853.3 133 880 121.2C906.7 109.3 933.3 94.7 946.7 87.3L960 80L960 0L946.7 0C933.3 0 906.7 0 880 0C853.3 0 826.7 0 800 0C773.3 0 746.7 0 720 0C693.3 0 666.7 0 640 0C613.3 0 586.7 0 560 0C533.3 0 506.7 0 480 0C453.3 0 426.7 0 400 0C373.3 0 346.7 0 320 0C293.3 0 266.7 0 240 0C213.3 0 186.7 0 160 0C133.3 0 106.7 0 80 0C53.3 0 26.7 0 13.3 0L0 0Z" fill="#319da0" stroke-linecap="round" stroke-linejoin="miter"></path></svg>