<svg id="visual" viewBox="0 0 960 540" width="960" height="540" xmlns="http://www.w3.org/2000/svg" xmlns:xlink="http://www.w3.org/1999/xlink" version="1.1"><path d="M0 76L13.3 73.8C26.7 71.7 53.3 67.3 80 79.5C106.7 91.7 133.3 120.3 160 124.8C186.7 129.3 213.3 109.7 240 108.7C266.7 107.7 293.3 125.3 320 125.7C346.7 126 373.3 109 400 109C426.7 109 453.3 126 480 133.3C506.7 140.7 533.3 138.3 560 135.3C586.7 132.3 613.3 128.7 640 125.7C666.7 122.7 693.3 120.3 720 124.7C746.7 129 773.3 140 800 137C826.7 134 853.3 117 880 107.8C906.7 98.7 933.3 97.3 946.7 96.7L960 96L960 0L946.7 0C933.3 0 906.7 0 880 0C853.3 0 826.7 0 800 0C773.3 0 746.7 0 720 0C693.3 0 666.7 0 640 0C613.3 0 586.7 0 560 0C533.3 0 506.7 0 480 0C453.3 0 426.7 0 400 0C373.3 0 346.7 0 320 0C293.3 0 266.7 0 240 0C213.3 0 186.7 0 160 0C133.3 0 106.7 0 80 0C53.3 0 26.7 0 13.3 0L0 0Z" fill="#c11e67" stroke-linecap="round" stroke-linejoin="miter"></path></svg>