<svg id="visual" viewBox="0 0 900 250" width="900" height="250" xmlns="http://www.w3.org/2000/svg" xmlns:xlink="http://www.w3.org/1999/xlink" version="1.1"><path d="M0 94L13.7 94.8C27.3 95.7 54.7 97.3 82 89.7C109.3 82 136.7 65 163.8 67.3C191 69.7 218 91.3 245.2 102.3C272.3 113.3 299.7 113.7 327 100.8C354.3 88 381.7 62 409 59.3C436.3 56.7 463.7 77.3 491 86.8C518.3 96.3 545.7 94.7 573 86.2C600.3 77.7 627.7 62.3 654.8 51.3C682 40.3 709 33.7 736.2 46C763.3 58.3 790.7 89.7 818 94.7C845.3 99.7 872.7 78.3 886.3 67.7L900 57L900 0L886.3 0C872.7 0 845.3 0 818 0C790.7 0 763.3 0 736.2 0C709 0 682 0 654.8 0C627.7 0 600.3 0 573 0C545.7 0 518.3 0 491 0C463.7 0 436.3 0 409 0C381.7 0 354.3 0 327 0C299.7 0 272.3 0 245.2 0C218 0 191 0 163.8 0C136.7 0 109.3 0 82 0C54.7 0 27.3 0 13.7 0L0 0Z" fill="#319da0" stroke-linecap="round" stroke-linejoin="miter"></path></svg>