<svg id="visual" viewBox="0 0 960 540" width="960" height="540" xmlns="http://www.w3.org/2000/svg" xmlns:xlink="http://www.w3.org/1999/xlink" version="1.1"><rect x="0" y="0" width="960" height="540" fill="#071824"></rect><path d="M0 90L17.8 85.3C35.7 80.7 71.3 71.3 106.8 69.8C142.3 68.3 177.7 74.7 213.2 88.8C248.7 103 284.3 125 320 130.7C355.7 136.3 391.3 125.7 426.8 125.5C462.3 125.3 497.7 135.7 533.2 139.5C568.7 143.3 604.3 140.7 640 128.3C675.7 116 711.3 94 746.8 80.2C782.3 66.3 817.7 60.7 853.2 72.7C888.7 84.7 924.3 114.3 942.2 129.2L960 144L960 0L942.2 0C924.3 0 888.7 0 853.2 0C817.7 0 782.3 0 746.8 0C711.3 0 675.7 0 640 0C604.3 0 568.7 0 533.2 0C497.7 0 462.3 0 426.8 0C391.3 0 355.7 0 320 0C284.3 0 248.7 0 213.2 0C177.7 0 142.3 0 106.8 0C71.3 0 35.7 0 17.8 0L0 0Z" fill="#c11e67" stroke-linecap="round" stroke-linejoin="miter"></path></svg>